# xmcd CD database file
#
# Track frame offsets:
#	150
#	27972
#	51272
#	72601
#	96634
#	121269
#	145081
#	166714
#
# Disc length: 2539 seconds
#
# Revision: 0
# Processed by: cddbd v1.5.1PL2 Copyright (c) Steve Scherf et al.
# Submitted via: CDex 1.51
#
DISCID=7009e908
DTITLE=Azuquita - Tipicamente Azuquita
DYEAR=2006
DGENRE=Salsa
TTITLE0=Tipicamente Azuquita
TTITLE1=Sabor A Caña
TTITLE2=Canto A Puerto Rico
TTITLE3=El Plebeyo
TTITLE4=Fiebre De Alegría
TTITLE5=Nubes De Sahumerio
TTITLE6=Que Nadio Sepa Mi Sufrir
TTITLE7=El Muerto Vivo
EXTD=YEAR: 2006
EXTT0=
EXTT1=
EXTT2=
EXTT3=
EXTT4=
EXTT5=
EXTT6=
EXTT7=
PLAYORDER=
